<svg xmlns="http://www.w3.org/2000/svg" viewBox="0 0 1000 1000">
    <style>
    .b {
      fill: currentColor;
    }
  </style>
  <path class="b" d="M500 1.93c-52.99 0-104.05 8.29-151.96 23.62l133.12 230.59 339.21 195.84c36.16 20.88 36.16 73.07 0 93.94L581 684.12l-40.36-42.15-2.93-3.06-5.56-.12-129.87-2.9c-9.58-18.28-28.66-54.69-30.27-57.75l-13.12-2.82-78.61-16.9V372.13L149.7 145.96C58.46 236.21 1.93 361.5 1.93 500c0 275.08 223 498.07 498.07 498.07s498.07-223 498.07-498.07S775.08 1.93 500 1.93ZM212.26 593.84l-41.69 14.79 8.04-43.5 8.04-43.5 33.65 28.71 33.65 28.71-41.69 14.79Zm149.38 216.93c-36.16 20.88-81.35-5.22-81.35-46.97V618.65l59.93 6.97c12.59 17.56 34.97 48.73 38.88 54.21l11.08-1.3 138.76-16.32 35.57 31.43-202.86 117.12Zm224.5 37.41-61.95 8.59 23.53-57.94 23.53-57.94 38.42 49.35 38.42 49.35-61.95 8.59Zm112.81-133.37-11.98 32.4-22.07-26.58-22.07-26.57 34.05-5.83 34.05-5.83-11.98 32.4Z"/>
</svg>
