<svg xmlns="http://www.w3.org/2000/svg" data-name="Ebene 1" viewBox="0 0 1000 1000">
  <style>
    .b {
      fill: currentColor;
    }
  </style>
  <path class="b" d="m700.1 485.15-91.96-53.1c-.07.06-.16.1-.23.15l-14.38-8.3c-19.6 19.39-48.34 33.21-81.44 36.68-37.27 3.91-71.86-6.16-95.66-24.99v12.77l.02.01V648.9c0 9.13 9.88 14.82 17.78 10.26l76.84-44.36.24.12 188.75-108.98c3.97-2.29 5.94-6.3 5.92-10.31.07-4.06-1.88-8.16-5.9-10.48Z"/>
  <path class="b" d="M500 11.87c-60.21 0-117.87 10.91-171.12 30.84l121.61 210.63 385.64 222.65c17.68 10.21 17.68 35.73 0 45.94L333.35 812.21c-17.68 10.21-39.78-2.55-39.78-22.97v-445.3l-119.62-207.2C74.45 226.1 11.87 355.74 11.87 500c0 269.59 218.54 488.13 488.13 488.13S988.13 769.59 988.13 500 769.59 11.87 500 11.87Z"/>
</svg>
